# xmcd CD database file
#
# Track frame offsets:
#	150
#	20860
#	38835
#	59485
#
# Disc length: 1029 seconds
#
# Revision: 0
# Processed by: cddbd v1.5PL3 Copyright (c) Steve Scherf et al.
# Submitted via: CDex 1.51
#
DISCID=33040304
DTITLE=COLOR - DOUBLE OR NOTHING (8cm)
DYEAR=1999
DGENRE=JPop
TTITLE0=DOUBLE OR NOTHING
TTITLE1=恋より大事なものはない
TTITLE2=DOUBLE OR NOTHING (INSTRUMENTAL)
TTITLE3=恋より大事なものはない (INSTRUMENTAL)
EXTD=YEAR: 1999
EXTT0=
EXTT1=
EXTT2=
EXTT3=
PLAYORDER=
